<svg width="13" height="13" viewBox="0 0 13 13" fill="none" xmlns="http://www.w3.org/2000/svg">
<rect x="0.5" y="0.5" width="12" height="12" stroke="#F5F5F5"/>
<path d="M9.59289 6.88458C9.54253 6.83381 9.48262 6.79351 9.41662 6.76601C9.35061 6.73851 9.27981 6.72435 9.2083 6.72435C9.1368 6.72435 9.066 6.73851 8.99999 6.76601C8.93398 6.79351 8.87408 6.83381 8.82372 6.88458L7.04164 8.66666V3.24999C7.04164 3.10634 6.98457 2.96856 6.88299 2.86698C6.78141 2.7654 6.64363 2.70833 6.49997 2.70833C6.35631 2.70833 6.21854 2.7654 6.11696 2.86698C6.01537 2.96856 5.9583 3.10634 5.9583 3.24999V8.66666L4.17622 6.88458C4.12587 6.83381 4.06596 6.79351 3.99995 6.76601C3.93394 6.73851 3.86314 6.72435 3.79164 6.72435C3.72013 6.72435 3.64933 6.73851 3.58333 6.76601C3.51732 6.79351 3.45741 6.83381 3.40705 6.88458C3.30617 6.98607 3.24954 7.12335 3.24954 7.26645C3.24954 7.40955 3.30617 7.54684 3.40705 7.64833L5.73622 9.97208C5.93845 10.1755 6.21312 10.2905 6.49997 10.2917C6.78494 10.289 7.0574 10.1742 7.2583 9.97208L9.58747 7.64833C9.68908 7.54756 9.74668 7.41067 9.7477 7.26757C9.74871 7.12447 9.69306 6.98678 9.59289 6.88458Z" fill="#5B9FFF"/>
</svg>
