<svg width="30" height="30" viewBox="0 0 30 30" fill="none" xmlns="http://www.w3.org/2000/svg">
<path fill-rule="evenodd" clip-rule="evenodd" d="M27.3883 2.31467C29.9456 5.2979 29.436 9.88303 25.3787 13.361C25.0527 13.6405 24.8533 14.0496 24.8897 14.4775L24.8925 14.5105C24.9134 14.757 25.0063 14.9919 25.1596 15.186L28.2734 19.1302L28.6561 19.7432C29.5016 20.7758 30 22.0451 30 23.4174C30 24.929 29.3952 26.3157 28.388 27.3987C28.3339 27.4569 28.3775 27.5546 28.4569 27.5546C29.4335 27.5546 29.9332 28.0363 29.9332 28.6305C29.9332 29.2248 29.4335 29.7065 28.4569 29.7065C28.3557 29.7065 28.1208 29.7106 27.7925 29.7164L27.7911 29.7164L27.7906 29.7164H27.7905C26.3982 29.7408 23.332 29.7946 21.661 29.6895C20.0075 29.689 18.6346 29.6864 17.5022 29.6731H7.13424C7.13174 29.6731 7.1297 29.6711 7.1297 29.6686C7.1297 29.6671 7.12897 29.6657 7.12784 29.6649C7.12708 29.6644 7.12615 29.6641 7.12515 29.6641C7.01425 29.6646 6.90179 29.6648 6.78774 29.6648C2.95423 29.6648 0.217028 28.6561 0.00349025 25.9394C-0.0145446 25.71 0.0386431 25.4811 0.132269 25.2708C1.16638 22.9486 2.50225 19.9487 5.27015 19.1288C5.37049 19.099 5.4488 19.0195 5.48106 18.92C5.91058 17.5944 7.70449 15.9374 8.65096 16.2444C9.03292 16.3683 9.23495 16.8434 9.31184 17.4532C9.36339 17.862 9.8606 18.1308 10.2284 17.9452C11.0226 17.5444 11.8507 17.3738 12.2903 17.676C12.8176 18.0384 12.5953 19.1569 12.1625 20.2165C12.0782 20.4227 12.1375 20.6604 12.3052 20.8069C12.343 20.8399 12.3802 20.8733 12.4169 20.9069C12.9597 21.4049 13.6329 21.7828 14.3695 21.7828C15.3713 21.7828 16.2223 21.0994 16.7737 20.263C17.3412 19.4024 18.1336 18.6721 19.0798 18.1351C20.0632 17.577 20.5291 16.2433 19.5844 15.622L17.0108 13.9294C16.3243 13.5137 15.6945 12.9856 15.154 12.3551C12.5967 9.37184 13.0053 5.226 16.1179 2.55777C20.2164 -0.95551 24.831 -0.668564 27.3883 2.31467ZM23.241 5.37836C24.2798 6.59024 24.0728 8.45284 22.4247 9.8657C21.1602 10.9496 19.31 10.6689 18.2711 9.45706C17.2323 8.24518 17.3982 6.56103 18.6627 5.47712C20.3276 4.04993 22.2022 4.16649 23.241 5.37836Z" fill="black"/>
</svg>
