<svg width="82" height="81" viewBox="0 0 82 81" fill="none" xmlns="http://www.w3.org/2000/svg">
<path fill-rule="evenodd" clip-rule="evenodd" d="M74.5652 6.30174C81.5275 14.4237 80.1401 26.9068 69.0942 36.3757C68.2065 37.1366 67.6638 38.2501 67.7628 39.4151L67.7705 39.5052C67.8275 40.1762 68.0803 40.8157 68.4976 41.3442L76.9752 52.0823L78.0156 53.749C80.3182 56.5606 81.6757 60.017 81.6757 63.7538C81.6757 67.8691 80.0293 71.6444 77.2871 74.5929C77.1398 74.7513 77.2584 75.0171 77.4747 75.0171C80.1334 75.0171 81.4939 76.3286 81.4939 77.9464C81.4939 79.5642 80.1334 80.8757 77.4747 80.8757C77.1989 80.8757 76.558 80.8869 75.6624 80.9026L75.6605 80.9027H75.66C71.8703 80.9692 63.5264 81.1155 58.9762 80.8298C54.4628 80.8284 50.7172 80.8213 47.6292 80.7849H19.4232C19.4164 80.7849 19.4108 80.7793 19.4108 80.7725C19.4108 80.7657 19.4053 80.7601 19.3984 80.7601C19.0965 80.7615 18.7903 80.7622 18.4798 80.7622C8.0426 80.7622 0.590328 78.0159 0.00947825 70.6189C-0.0395306 69.9948 0.10513 69.3721 0.3598 68.8002L0.360148 68.7994C3.19845 62.4256 6.87168 54.1769 14.5328 52.0243C14.693 51.9792 14.8188 51.8525 14.8656 51.6927C14.8835 51.6318 14.9024 51.5705 14.9223 51.5089C16.0917 47.9 20.9757 43.3889 23.5525 44.2246C24.9597 44.681 25.4699 46.8887 25.4526 49.3865C25.4499 49.7763 25.9058 50.0183 26.2296 49.8012C28.7897 48.0842 31.9585 47.0891 33.4607 48.1216C35 49.1797 34.1927 52.6047 32.8487 55.6606C32.7638 55.8535 32.8198 56.0796 32.9838 56.212C33.2675 56.4409 33.5415 56.6766 33.8053 56.9186C35.2832 58.2743 37.1159 59.3033 39.1214 59.3033C41.849 59.3033 44.1656 57.4427 45.667 55.1656C47.7311 52.0352 50.889 49.5379 54.6775 48.0832C56.2563 47.477 56.9711 45.5036 55.712 44.3746C54.9634 43.7033 54.1638 43.0868 53.319 42.5311L46.314 37.9242C44.4443 36.7924 42.7292 35.3541 41.2572 33.637C34.2949 25.515 35.4072 14.2279 43.8814 6.9636C55.0395 -2.6014 67.6029 -1.82018 74.5652 6.30174ZM63.2742 14.6427C66.1025 17.942 65.5389 23.013 61.0517 26.8596C57.6092 29.8105 52.5718 29.0464 49.7435 25.747C46.9153 22.4477 47.3671 17.8625 50.8096 14.9116C55.3423 11.026 60.4459 11.3433 63.2742 14.6427Z" fill="black"/>
</svg>
