<svg width="24" height="24" viewBox="0 0 24 24" fill="none" xmlns="http://www.w3.org/2000/svg">
<path d="M15.3998 9.88001L10.8098 5.29001C10.6225 5.10376 10.369 4.99922 10.1048 4.99922C9.84064 4.99922 9.58719 5.10376 9.39983 5.29001C9.3061 5.38298 9.2317 5.49358 9.18093 5.61544C9.13017 5.7373 9.10403 5.868 9.10403 6.00001C9.10403 6.13203 9.13017 6.26273 9.18093 6.38459C9.2317 6.50645 9.3061 6.61705 9.39983 6.71001L13.9998 11.29C14.0936 11.383 14.1679 11.4936 14.2187 11.6154C14.2695 11.7373 14.2956 11.868 14.2956 12C14.2956 12.132 14.2695 12.2627 14.2187 12.3846C14.1679 12.5065 14.0936 12.6171 13.9998 12.71L9.39983 17.29C9.21152 17.477 9.10521 17.7311 9.10427 17.9965C9.10333 18.2618 9.20785 18.5167 9.39483 18.705C9.5818 18.8933 9.83593 18.9996 10.1013 19.0006C10.3667 19.0015 10.6215 18.897 10.8098 18.71L15.3998 14.12C15.9616 13.5575 16.2772 12.795 16.2772 12C16.2772 11.205 15.9616 10.4425 15.3998 9.88001Z" fill="#BCBCBC"/>
</svg>
