<svg width="208" height="60" viewBox="0 0 208 60" fill="none" xmlns="http://www.w3.org/2000/svg">
<path d="M10.08 24.68C10.6933 23.64 11.56 22.8133 12.68 22.2C13.8 21.5867 15.12 21.28 16.64 21.28C18.4267 21.28 20.04 21.7467 21.48 22.68C22.9467 23.6133 24.0933 24.9467 24.92 26.68C25.7733 28.4133 26.2 30.44 26.2 32.76C26.2 35.08 25.7733 37.12 24.92 38.88C24.0933 40.6133 22.9467 41.9467 21.48 42.88C20.04 43.8133 18.4267 44.28 16.64 44.28C15.12 44.28 13.8 43.9733 12.68 43.36C11.5867 42.7467 10.72 41.92 10.08 40.88V54.72H2.24V21.56H10.08V24.68ZM18.24 32.76C18.24 31.2933 17.84 30.16 17.04 29.36C16.2667 28.5333 15.3067 28.12 14.16 28.12C13.0133 28.12 12.04 28.5333 11.24 29.36C10.4667 30.1867 10.08 31.32 10.08 32.76C10.08 34.2267 10.4667 35.3733 11.24 36.2C12.04 37.0267 13.0133 37.44 14.16 37.44C15.3067 37.44 16.2667 37.0267 17.04 36.2C17.84 35.3467 18.24 34.2 18.24 32.76ZM30.1475 32.76C30.1475 30.44 30.5608 28.4133 31.3875 26.68C32.2408 24.9467 33.3875 23.6133 34.8275 22.68C36.2942 21.7467 37.9208 21.28 39.7075 21.28C41.2542 21.28 42.5875 21.5867 43.7075 22.2C44.8275 22.8133 45.6942 23.64 46.3075 24.68V21.56H54.1475V44H46.3075V40.88C45.6942 41.92 44.8142 42.7467 43.6675 43.36C42.5475 43.9733 41.2275 44.28 39.7075 44.28C37.9208 44.28 36.2942 43.8133 34.8275 42.88C33.3875 41.9467 32.2408 40.6133 31.3875 38.88C30.5608 37.12 30.1475 35.08 30.1475 32.76ZM46.3075 32.76C46.3075 31.32 45.9075 30.1867 45.1075 29.36C44.3342 28.5333 43.3742 28.12 42.2275 28.12C41.0542 28.12 40.0808 28.5333 39.3075 29.36C38.5342 30.16 38.1475 31.2933 38.1475 32.76C38.1475 34.2 38.5342 35.3467 39.3075 36.2C40.0808 37.0267 41.0542 37.44 42.2275 37.44C43.3742 37.44 44.3342 37.0267 45.1075 36.2C45.9075 35.3733 46.3075 34.2267 46.3075 32.76ZM68.895 21.28C70.415 21.28 71.735 21.5867 72.855 22.2C74.0017 22.8133 74.8817 23.64 75.495 24.68V21.56H83.335V43.76C83.335 45.8667 82.935 47.76 82.135 49.44C81.335 51.1467 80.0817 52.5067 78.375 53.52C76.695 54.5333 74.5617 55.04 71.975 55.04C68.5083 55.04 65.735 54.2267 63.655 52.6C61.575 50.9733 60.3883 48.76 60.095 45.96H67.815C67.975 46.68 68.375 47.24 69.015 47.64C69.655 48.04 70.4817 48.24 71.495 48.24C74.1617 48.24 75.495 46.7467 75.495 43.76V40.88C74.8817 41.92 74.0017 42.7467 72.855 43.36C71.735 43.9733 70.415 44.28 68.895 44.28C67.1083 44.28 65.4817 43.8133 64.015 42.88C62.575 41.9467 61.4283 40.6133 60.575 38.88C59.7483 37.12 59.335 35.08 59.335 32.76C59.335 30.44 59.7483 28.4133 60.575 26.68C61.4283 24.9467 62.575 23.6133 64.015 22.68C65.4817 21.7467 67.1083 21.28 68.895 21.28ZM75.495 32.76C75.495 31.32 75.095 30.1867 74.295 29.36C73.5217 28.5333 72.5617 28.12 71.415 28.12C70.2417 28.12 69.2683 28.5333 68.495 29.36C67.7217 30.16 67.335 31.2933 67.335 32.76C67.335 34.2 67.7217 35.3467 68.495 36.2C69.2683 37.0267 70.2417 37.44 71.415 37.44C72.5617 37.44 73.5217 37.0267 74.295 36.2C75.095 35.3733 75.495 34.2267 75.495 32.76ZM111.243 32.52C111.243 33.1333 111.203 33.7467 111.123 34.36H96.2825C96.3625 35.5867 96.6958 36.5067 97.2825 37.12C97.8958 37.7067 98.6692 38 99.6025 38C100.909 38 101.843 37.4133 102.403 36.24H110.763C110.416 37.7867 109.736 39.1733 108.723 40.4C107.736 41.6 106.483 42.5467 104.963 43.24C103.443 43.9333 101.763 44.28 99.9225 44.28C97.7092 44.28 95.7358 43.8133 94.0025 42.88C92.2958 41.9467 90.9492 40.6133 89.9625 38.88C89.0025 37.1467 88.5225 35.1067 88.5225 32.76C88.5225 30.4133 89.0025 28.3867 89.9625 26.68C90.9225 24.9467 92.2558 23.6133 93.9625 22.68C95.6958 21.7467 97.6825 21.28 99.9225 21.28C102.136 21.28 104.096 21.7333 105.803 22.64C107.509 23.5467 108.843 24.8533 109.803 26.56C110.763 28.24 111.243 30.2267 111.243 32.52ZM103.243 30.56C103.243 29.6 102.923 28.8533 102.283 28.32C101.643 27.76 100.843 27.48 99.8825 27.48C98.9225 27.48 98.1358 27.7467 97.5225 28.28C96.9092 28.7867 96.5092 29.5467 96.3225 30.56H103.243ZM129.691 37.32V44H126.291C120.558 44 117.691 41.16 117.691 35.48V28.08H114.931V21.56H117.691V16.12H125.571V21.56H129.651V28.08H125.571V35.6C125.571 36.2133 125.704 36.6533 125.971 36.92C126.264 37.1867 126.744 37.32 127.411 37.32H129.691ZM150.047 21.36C152.607 21.36 154.634 22.2267 156.127 23.96C157.647 25.6667 158.407 27.9867 158.407 30.92V44H150.567V31.96C150.567 30.68 150.234 29.68 149.567 28.96C148.9 28.2133 148.007 27.84 146.887 27.84C145.714 27.84 144.794 28.2133 144.127 28.96C143.46 29.68 143.127 30.68 143.127 31.96V44H135.287V14.4H143.127V24.76C143.82 23.7467 144.754 22.9333 145.927 22.32C147.127 21.68 148.5 21.36 150.047 21.36ZM186.149 32.52C186.149 33.1333 186.109 33.7467 186.029 34.36H171.189C171.269 35.5867 171.602 36.5067 172.189 37.12C172.802 37.7067 173.575 38 174.509 38C175.815 38 176.749 37.4133 177.309 36.24H185.669C185.322 37.7867 184.642 39.1733 183.629 40.4C182.642 41.6 181.389 42.5467 179.869 43.24C178.349 43.9333 176.669 44.28 174.829 44.28C172.615 44.28 170.642 43.8133 168.909 42.88C167.202 41.9467 165.855 40.6133 164.869 38.88C163.909 37.1467 163.429 35.1067 163.429 32.76C163.429 30.4133 163.909 28.3867 164.869 26.68C165.829 24.9467 167.162 23.6133 168.869 22.68C170.602 21.7467 172.589 21.28 174.829 21.28C177.042 21.28 179.002 21.7333 180.709 22.64C182.415 23.5467 183.749 24.8533 184.709 26.56C185.669 28.24 186.149 30.2267 186.149 32.52ZM178.149 30.56C178.149 29.6 177.829 28.8533 177.189 28.32C176.549 27.76 175.749 27.48 174.789 27.48C173.829 27.48 173.042 27.7467 172.429 28.28C171.815 28.7867 171.415 29.5467 171.229 30.56H178.149ZM199.197 25.52C200.077 24.24 201.144 23.2267 202.397 22.48C203.651 21.7333 204.997 21.36 206.437 21.36V29.72H204.237C202.531 29.72 201.264 30.0533 200.437 30.72C199.611 31.3867 199.197 32.5467 199.197 34.2V44H191.357V21.56H199.197V25.52Z" fill="black"/>
</svg>
