<svg width="13" height="13" viewBox="0 0 13 13" fill="none" xmlns="http://www.w3.org/2000/svg">
<path d="M9.59298 5.35167L7.26381 3.02792C7.06084 2.82614 6.78626 2.71289 6.50006 2.71289C6.21386 2.71289 5.93929 2.82614 5.73631 3.02792L3.40715 5.35167C3.30626 5.45315 3.24963 5.59044 3.24963 5.73354C3.24963 5.87664 3.30626 6.01393 3.40715 6.11542C3.4575 6.16619 3.51741 6.20648 3.58342 6.23398C3.64942 6.26148 3.72022 6.27564 3.79173 6.27564C3.86324 6.27564 3.93404 6.26148 4.00004 6.23398C4.06605 6.20648 4.12596 6.16619 4.17631 6.11542L5.9584 4.33333V10.2917C5.9584 10.4353 6.01546 10.5731 6.11705 10.6747C6.21863 10.7763 6.3564 10.8333 6.50006 10.8333C6.64372 10.8333 6.7815 10.7763 6.88308 10.6747C6.98466 10.5731 7.04173 10.4353 7.04173 10.2917V4.33333L8.82381 6.11542C8.92509 6.21741 9.06274 6.275 9.20648 6.27551C9.35022 6.27602 9.48827 6.2194 9.59027 6.11812C9.69227 6.01684 9.74986 5.87919 9.75036 5.73546C9.75087 5.59172 9.69426 5.45366 9.59298 5.35167Z" fill="#FF5B5B"/>
</svg>
